<svg xmlns="http://www.w3.org/2000/svg" viewBox="0 0 187.91 184.96"><defs><style>.cls-1{fill:#17110d;}.cls-2{fill:#3c240f;}.cls-3{fill:#e47f49;}.cls-4{fill:#593f2c;}.cls-5{fill:#efdebf;}</style></defs><g id="Layer_2" data-name="Layer 2"><g id="Layer_1-2" data-name="Layer 1"><path class="cls-1" d="M107.7,180.33c-.71.61-1.33,1.59-2.14,1.77-3.86.89-7.74,1.72-11.66,2.27-8.77,1.22-17.48.42-26.13-1.16-2-.38-2.4-.73-2.84-2.39a43.59,43.59,0,0,1-16.91-.9c-3.58-.95-4.25-2-4.31-5.69-.14-7.92,3.68-12.69,11.66-14.45a47.27,47.27,0,0,1,6.23-1.11,5.57,5.57,0,0,0,5.5-5.15,59.23,59.23,0,0,0,0-11.53c-.33-3.3-1.69-6.48-2.2-9.77a57.82,57.82,0,0,1-.72-10.34c0-1.23,1.51-2.41,2.7-4.18L65,110l-.45.06c0,.85-.08,1.7-.13,2.54a11.81,11.81,0,0,1-3.55,7.61,5,5,0,0,1-5.46,1.46,25.94,25.94,0,0,1-6-2.79c-4.92-3.44-5.35-8.53-4.34-13.86.26-1.38,1.34-2.61,2.16-4.13-1.84-.62-3.79-1.36-5.78-1.94-5.25-1.53-10.16-3.67-14.23-7.47a2,2,0,0,0-1.47-.31c-2.09.29-4.15.78-6.25,1a6.56,6.56,0,0,1-7.37-5.8c-.66-4-.64-4.11,1-6.38a30.15,30.15,0,0,1-11-9.53A13.47,13.47,0,0,1,.29,67c-.86-2.57.21-4,2.89-4H4.61a5.82,5.82,0,0,0,0-1.18C2.32,50.37,5.82,40.12,11.29,30.31c1.6-2.87,3-6,5.09-8.42a66.48,66.48,0,0,1,9.67-9.23C36.7,4.39,49.17,1.17,62.39.33c8.41-.53,16.84-.74,25,1.88,5,1.63,9.89,3.83,14.75,6,3.28,1.43,6.43,3.16,9.64,4.76l.78.47c1.11.87,2.22,1.74,3.32,2.62l1.87-.13c3.38-.45,6.75-1,10.13-1.29a3.07,3.07,0,0,1,2.17.88,111.76,111.76,0,0,1,7.67,8.33c2.24,2.82,1.57,5.78-1.35,7.9-.6.44-1.24.82-1.86,1.23,1.4,2.29,2.77,4.57,4.18,6.81a1.84,1.84,0,0,0,2.72.72,25.7,25.7,0,0,0,3.95-3.57c5.1-5.6,9.87-11.53,15.27-16.83A46.76,46.76,0,0,1,181,8.47c.71-.2,1.43-.43,2.16-.57,3.24-.61,5.37,1.33,4.58,4.56a43.09,43.09,0,0,1-3,8.21c-1.56,3.31-3.53,6.43-5.24,9.67-2.05,3.91-4.1,7.81-6,11.8-2.95,6.22-2.54,12.65-1.1,19.18,1.06,4.78,1.88,9.62,2.78,14.45a10.25,10.25,0,0,1,.23,2.58c-.21,2.69-1.17,3.92-3.86,4.2a22.3,22.3,0,0,1-19.87-7.69c-1.41-1.58-2.64-3.31-4-4.94a24.08,24.08,0,0,0-2.25-2.48c-3.4-3.11-3.95-3.15-8-1.14-1.56.77-3.14,1.48-4.75,2.15-5.18,2.15-9.94,4.85-13,10.15a49.43,49.43,0,0,1,2.59,6.16,24,24,0,0,1,1,6.88c0,1.81-1.19,2.12-2.72,1.11a2.07,2.07,0,0,1-.58-.46,13.52,13.52,0,0,0-8.41-5.6l-1.29,1.47c1.75,3.45,1.52,4.36-1.66,5.14q1.22,12.95,2.44,26c.7.06,1.19.06,1.68.13,2.73.4,3.62,1.27,3.78,3.9.3,4.82.73,9.65.75,14.47,0,4-.48,7.92-.74,11.88a36.84,36.84,0,0,0,2.11,13.72c.9,2.83,1.63,5.71,2.3,8.61a5.24,5.24,0,0,1-2.16,5.39,16.27,16.27,0,0,1-8.3,3.55l-1.22-2.4-1.63,1.77c.36-.91.71-1.83,1.06-2.75l2.8,1.88-.09.64a49.88,49.88,0,0,0,5.84-2.69c2.52-1.57,2.92-2.88,2.12-4.48-2.44.82-5,2.59-7.17,2.19-3.5-.64-5.25,1.61-7.76,2.74a20.9,20.9,0,0,1-5.88,1.48c-5.85.77-11.7,1.63-17.58,2-5.11.3-10.26-.09-14.9-2.8-.51,2.29-.12,3.36,1.47,3.58,4.09.56,8.18,1.32,12.29,1.47C89.29,183.92,98.68,183.63,107.7,180.33ZM130,27.59l3.37,4.1c3.05-1,3.7-1.82,3.56-4.38l-1.64-.1,1.68-.49L134.57,23l-.71-.62c-2.44-5.39-10.21-7.91-15.59-5,2.73,2.38,5.44,4.79,8.19,7.16,1,.88,2.11,1.67,3.17,2.51Zm7.52,13.08q-1.6-1.92-3.2-3.85c-3.11-3.79-5.92-7.87-9.37-11.31A73.43,73.43,0,0,0,100.64,9.13c-4.94-2-9.91-4.22-15.08-5.3A85,85,0,0,0,49.29,4c-5.71,1.3-11.46,2.7-16.39,5.95C21,17.74,12.26,28.14,7.7,41.77c-2.34,7-3.93,14.14-1.55,21.63.32.09.87.23,1.39.42s1.18.41,1.74.66c9.46,4.24,17.94,9.83,24.61,17.89a1.9,1.9,0,0,1,.13,1.8c-1.29,1.71-2.72,3.33-4.17,4.91A10.66,10.66,0,0,1,28,90.39c3.75,3.19,7.93,4.86,12.19,6.48a63.09,63.09,0,0,0,29.86,3.71c2.56-.29,2.61-.25,2.48-2.76s0-4.88,1.67-6.71a33.54,33.54,0,0,1,6-5.25,4.42,4.42,0,0,1,3.5,0,8.67,8.67,0,0,1,3.39,2.52,73.07,73.07,0,0,1,4.58,6.55c.61.94,1.18,1.24,2.26.77,2.45-1.07,5-2,7.41-3.06a19.64,19.64,0,0,0,9.44-8.15,11.07,11.07,0,0,0,.56-1.38l.35.87c1,.75,2,1.93,3.16,2.18a7.08,7.08,0,0,1,5.34,4.15c.25.51.92.83,1.4,1.24.2-.57.7-1.24.56-1.7-.9-2.94-1.89-5.86-3-8.74-.72-1.93-1.65-3.79-2.49-5.68l.58-.42c.65.61,1.31,1.21,2.08,1.92a13.78,13.78,0,0,0,1.36-1.69c1.76-3,3.4-6.07,5.23-9a18.49,18.49,0,0,1,2.59-2.73l0,0c-1,2.35-1.93,4.7-3,7.19,7.75-3.94,16.15-6.29,21.71-13.44l.54.64-3,3.63c3,0,4.36-.68,6.48-3.22l.35,1.38-2.52,2.33c3.85,4.15,8.33,7.68,11.12,12.69a11.41,11.41,0,0,1-2.48-1.84c-3.06-3.18-6.07-6.42-9.11-9.62-.32-.33-.79-.85-1.13-.81-1.62.2-3.22.56-4.82.87,4.3,2.4,6.63,6.51,9.72,9.86.71.78,1.43,1.55,2.19,2.29C159.3,80,165,81.5,171.39,81c1.93-.14,2.61-1.12,2.45-2.91,0-.44,0-.88-.12-1.3-.92-4.81-1.55-9.69-2.84-14.4a32,32,0,0,1,2.92-24.7c3-5.51,6-11,8.87-16.61a51.56,51.56,0,0,0,3.18-7.55c1-3.09-.42-4.58-3.56-3.88-7.15,1.58-13.29,5.25-18.92,9.72-6.69,5.31-11.76,12.12-16.87,18.87-1.48,2-3.12,3.52-5.66,3.87ZM66,177a26.31,26.31,0,0,0,12.29,3.27c6.58.25,13.1-.61,19.6-1.53,3.65-.51,7.2-1.28,9.7-4.47.35-.45,1.52-.37,2.3-.35s1.65.59,2.28.36a39.48,39.48,0,0,0,5.9-2.64,2.43,2.43,0,0,0,.75-2.1c-.36-2.12-1.09-4.18-1.48-6.3-.81-4.43-1.75-8.86-2.16-13.34a51.72,51.72,0,0,1,.3-10.4,51.86,51.86,0,0,0-.55-16.22c-3.45.48-6.74.91-10,1.43a5.19,5.19,0,0,0-2.15.91A8.54,8.54,0,0,1,97,127.65c-2.61-.22-5.22-.52-7.8-.78.53,2.94,1.19,5.95,1.58,9,.65,5,1.16,10.08,1.67,15.13.3,2.88.13,5.73-1.63,8.17-1.29,1.79-2.79,3.43-4.16,5.09a16.86,16.86,0,0,1,8.79,8,9.23,9.23,0,0,1-2.23-1.43,55.68,55.68,0,0,0-6.39-4.72c-3.45-1.91-7.31-1.78-11.07-1-3,.63-6,1.8-7.42,4.75A50.8,50.8,0,0,0,66,177Zm-.57-54.33a15.08,15.08,0,0,0,0,2.41c.79,5.44,1.8,10.85,2.4,16.31a74.19,74.19,0,0,1,.43,12c-.24,4.56-2.75,6.59-7.34,6.75a19.3,19.3,0,0,0-2.26.36c6.08,2.34,6.87,2.83,8.41,5.51-1.17-.63-1.91-1-2.58-1.39-2.62-1.7-5.28-3.45-8.53-3.33a11.16,11.16,0,0,0-10.51,8.47c-.63,2.22-.33,2.85,1.79,3.7,5,2,10.32,1.82,15.54,2.29,1.79.16,3-.56,3.3-2.73.32-2.69,1.24-5.13,3.79-6.71,3.47-2.16,7.25-2.64,11.2-2.89a16.45,16.45,0,0,0,5.81-1.56c2.53-1.18,4.07-5.39,3.55-8.13a47.41,47.41,0,0,1-.76-6.62c-.08-1.59.33-3.21.26-4.8-.1-2.28-.39-4.56-.68-6.83-.33-2.57-.7-5.14-1.15-7.7-.29-1.6-3.91-4.14-5.54-4.07a60.82,60.82,0,0,1-6.88.14C72.39,123.6,69.06,123.08,65.47,122.65ZM74,97.2c.3,3.84.48,7.69.94,11.5a15.44,15.44,0,0,0,4.34,9.5c4.73,4.58,10.39,7.4,17.15,7.53,4.6.08,7-2.82,6.6-7a20.53,20.53,0,0,0-2.53-7.68c-2.22-4-4.94-7.72-7.42-11.58-1.88-2.92-3.64-5.92-5.62-8.77a13.82,13.82,0,0,0-3.28-3.24,3,3,0,0,0-4.07.32,8.37,8.37,0,0,1-1.19.86C75.82,90.65,73.81,93.29,74,97.2Zm-16.79,23A8.32,8.32,0,0,0,59.32,119a9.62,9.62,0,0,0,3.24-6.12c.31-2.83.65-5.65,1-8.48.13-1.05-.15-1.6-1.34-1.69-4.14-.34-8.26-.81-12.4-1.1a2.54,2.54,0,0,0-1.85,1c-2,2.89-1.84,6.17-1.18,9.36C47.67,116.35,52,119.75,57.2,120.15Zm50-28.76c-4.26,2-8.87,4.15-13.77,6.46,1.46,2.16,2.83,4.2,4.22,6.24,1.78,2.62,3.73,5.14,5.3,7.87,2.13,3.69,3.6,7.59.88,12.15l5.94-1C108.91,112.23,108,101.55,107.22,91.39Zm-76.32-10c-.52-.62-.72-.92-1-1.16C23.45,74.5,16.58,69.32,8.48,66a20.59,20.59,0,0,0-4.87-1.16c-1.62-.22-2,.38-1.46,2A5,5,0,0,0,2.68,68a25.84,25.84,0,0,0,10.39,9.61C18.52,80.3,24.47,80.89,30.9,81.42ZM72.84,101.9l-7.53.87c1.16,5,2.52,9.87,3.42,14.87.73,4,.47,4.22,4.31,4.61,2.6.27,5.25.06,8.19.06C74.19,117.14,73.28,109.7,72.84,101.9ZM32.13,83.52c-2.76-.33-5.41-.57-8-1s-5.38-.94-8-1.62c-1.58-.41-2.33.46-2.31,1.56a13.85,13.85,0,0,0,1,5.41,4.62,4.62,0,0,0,3.07,2.35C22.52,90.83,29.68,88.53,32.13,83.52Zm13,90.12c-.47,3.88-.35,4.08,3,5.16a6.18,6.18,0,0,0,1.43.38c4.37.26,8.74.55,13.11.72,2.67.1,3-.45,2.16-3C58.08,176.73,51.47,176.46,45.1,173.64Zm70.13-52.17V121l-4-1,.65,2.82Zm-5.4-32.09-.92.09.36,2.49c.27-.08.78-.17.78-.24C110,90.94,109.92,90.16,109.83,89.38Z"/><path class="cls-2" d="M117.71,15.88l-1.87.13Z"/><path class="cls-2" d="M112.52,13.39l-.78-.47Z"/><path class="cls-3" d="M128.52,63.45a18.49,18.49,0,0,0-2.59,2.73c-1.83,2.95-3.47,6-5.23,9a13.78,13.78,0,0,1-1.36,1.69c-.77-.71-1.43-1.31-2.08-1.92l-.58.42c.84,1.89,1.77,3.75,2.49,5.68,1.08,2.88,2.07,5.8,3,8.74.14.46-.36,1.13-.56,1.7-.48-.41-1.15-.73-1.4-1.24a7.08,7.08,0,0,0-5.34-4.15c-1.16-.25-2.11-1.43-3.16-2.18l-.35-.87a11.07,11.07,0,0,1-.56,1.38,19.64,19.64,0,0,1-9.44,8.15c-2.42,1.11-5,2-7.41,3.06-1.08.47-1.65.17-2.26-.77a73.07,73.07,0,0,0-4.58-6.55,8.67,8.67,0,0,0-3.39-2.52,4.42,4.42,0,0,0-3.5,0,33.54,33.54,0,0,0-6,5.25c-1.63,1.83-1.8,4.28-1.67,6.71s.08,2.47-2.48,2.76a63.09,63.09,0,0,1-29.86-3.71C36,95.25,31.77,93.58,28,90.39a10.66,10.66,0,0,0,1.83-1.31c1.45-1.58,2.88-3.2,4.17-4.91a1.9,1.9,0,0,0-.13-1.8C27.22,74.31,18.74,68.72,9.28,64.48c-.56-.25-1.15-.46-1.74-.66s-1.07-.33-1.39-.42C3.77,55.91,5.36,48.78,7.7,41.77,12.26,28.14,21,17.74,32.9,9.93,37.83,6.68,43.58,5.28,49.29,4a85,85,0,0,1,36.27-.15c5.17,1.08,10.14,3.3,15.08,5.3a73.43,73.43,0,0,1,24.29,16.38c3.45,3.44,6.26,7.52,9.37,11.31q1.59,1.93,3.2,3.85c3.08,3.79,8.25,5.62,10,10.77a3,3,0,0,0-.18-2.14c-1.31-1.77-2.73-3.47-4.18-5.13a26.48,26.48,0,0,0-2.3-2.05c2.54-.35,4.18-1.91,5.66-3.87,5.11-6.75,10.18-13.56,16.87-18.87,5.63-4.47,11.77-8.14,18.92-9.72,3.14-.7,4.59.79,3.56,3.88a51.56,51.56,0,0,1-3.18,7.55c-2.87,5.58-5.86,11.1-8.87,16.61a32,32,0,0,0-2.92,24.7c1.29,4.71,1.92,9.59,2.84,14.4.08.42.08.86.12,1.3.16,1.79-.52,2.77-2.45,2.91-6.4.49-12.09-1-16.76-5.64-.76-.74-1.48-1.51-2.19-2.29-3.09-3.35-5.42-7.46-9.72-9.86,1.6-.31,3.2-.67,4.82-.87.34,0,.81.48,1.13.81,3,3.2,6.05,6.44,9.11,9.62a11.41,11.41,0,0,0,2.48,1.84c-2.79-5-7.27-8.54-11.12-12.69.91-.84,1.72-1.58,2.52-2.33l15.58,7.88.28-.51c-4.53-3.65-10-5.74-15.13-8.14l2.4-2.79c.09-.75.19-1.5.28-2.25,1.28-.13,2.56-.3,3.84-.4.92-.07,1.85,0,2.78-.08s1.78-.27,2.67-.4l-.06-.71-9.31.56-.79-2L164,45.39c-2.75-.23-4.87,1.2-7.07,2.39-1.13.61-2.23,1.25-3.34,1.88l-1.16-1.13a8.51,8.51,0,0,1,1.25-2.07c2.71-2.45,5.51-4.8,8.26-7.2.45-.39.85-.85,1.27-1.28l-.38-.38c-1.55,1.19-3.2,2.27-4.65,3.57-2.23,2-4.33,4.19-6.49,6.3l-3.94-2.41-1.29-.6-.71.88,1.47.61c1.18,1,2.32,2,3.55,3A7.89,7.89,0,0,1,154,56l-2.69,2.23c-2.12,2.54-3.52,3.24-6.48,3.22l3-3.63-.54-.64c-5.56,7.15-14,9.5-21.71,13.44,1-2.49,2-4.84,3-7.19l.12-.07Zm17.14-19,.53-.54-1-.5-.17.24Zm-110,8.44a62,62,0,0,0,1.17,6.39c1.49,5.14,4.53,9.13,9.53,11.29,8.24,3.55,16.2,3,23.79-1.93,4.2-2.7,7-6.21,8.06-11.31C79.44,51.17,77.36,46,74,41.08a14.4,14.4,0,0,0-9.77-6.57A29,29,0,0,0,44.52,38.1C38.81,41.38,35.77,46.21,35.66,52.93Zm-1.89-15,.4.63C42,28.78,52.24,26.87,63.86,29c-.55-.62-1.16-1.28-1.78-1.29-4-.1-8-.51-11.85,0a23.37,23.37,0,0,0-15.12,8.07A18,18,0,0,0,33.77,37.92Zm112.91,3,.68.61L161,26l-.71-.62Z"/><path class="cls-4" d="M66,177a50.8,50.8,0,0,1,2.29-7.1c1.44-2.95,4.4-4.12,7.42-4.75,3.76-.77,7.62-.9,11.07,1a55.68,55.68,0,0,1,6.39,4.72,9.23,9.23,0,0,0,2.23,1.43,16.86,16.86,0,0,0-8.79-8c1.37-1.66,2.87-3.3,4.16-5.09,1.76-2.44,1.93-5.29,1.63-8.17-.51-5.05-1-10.1-1.67-15.13-.39-3-1-6.05-1.58-9,2.58.26,5.19.56,7.8.78a8.54,8.54,0,0,0,5.81-2.05,5.19,5.19,0,0,1,2.15-.91c3.28-.52,6.57-1,10-1.43a51.86,51.86,0,0,1,.55,16.22,51.72,51.72,0,0,0-.3,10.4c.41,4.48,1.35,8.91,2.16,13.34.39,2.12,1.12,4.18,1.48,6.3a2.43,2.43,0,0,1-.75,2.1,39.48,39.48,0,0,1-5.9,2.64c-.63.23-1.51-.34-2.28-.36s-2-.1-2.3.35c-2.5,3.19-6,4-9.7,4.47-6.5.92-13,1.78-19.6,1.53A26.31,26.31,0,0,1,66,177Z"/><path class="cls-4" d="M65.47,122.65c3.59.43,6.92.95,10.27,1.19a60.82,60.82,0,0,0,6.88-.14c1.63-.07,5.25,2.47,5.54,4.07.45,2.56.82,5.13,1.15,7.7.29,2.27.58,4.55.68,6.83.07,1.59-.34,3.21-.26,4.8a47.41,47.41,0,0,0,.76,6.62c.52,2.74-1,6.95-3.55,8.13a16.45,16.45,0,0,1-5.81,1.56c-3.95.25-7.73.73-11.2,2.89-2.55,1.58-3.47,4-3.79,6.71-.25,2.17-1.51,2.89-3.3,2.73-5.22-.47-10.55-.27-15.54-2.29-2.12-.85-2.42-1.48-1.79-3.7A11.16,11.16,0,0,1,56,161.28c3.25-.12,5.91,1.63,8.53,3.33.67.43,1.41.76,2.58,1.39-1.54-2.68-2.33-3.17-8.41-5.51a19.3,19.3,0,0,1,2.26-.36c4.59-.16,7.1-2.19,7.34-6.75a74.19,74.19,0,0,0-.43-12c-.6-5.46-1.61-10.87-2.4-16.31A15.08,15.08,0,0,1,65.47,122.65Z"/><path class="cls-3" d="M74,97.2c-.18-3.91,1.83-6.55,4.92-8.58a8.37,8.37,0,0,0,1.19-.86,3,3,0,0,1,4.07-.32,13.82,13.82,0,0,1,3.28,3.24c2,2.85,3.74,5.85,5.62,8.77,2.48,3.86,5.2,7.58,7.42,11.58a20.53,20.53,0,0,1,2.53,7.68c.41,4.2-2,7.1-6.6,7-6.76-.13-12.42-3-17.15-7.53a15.44,15.44,0,0,1-4.34-9.5C74.47,104.89,74.29,101,74,97.2Zm9.26-3.4a86.77,86.77,0,0,0,5.31,12.88l.69-.28q-2.76-6.54-5.51-13.09l-1.89-5-.66.25Zm-3.12-2.88c-.84,2.66,4.1,19.23,6.19,20.87C84.22,104.72,82.25,98.08,80.13,90.92Zm3.26-2.6-.68.35,10.71,17.7.77-.46C90.91,99.86,87,94.17,83.39,88.32Zm-4.85,16.12c.89-4.54.11-9-.8-13.48A47,47,0,0,0,78.54,104.44Z"/><path class="cls-3" d="M57.2,120.15c-5.25-.4-9.53-3.8-10.42-8.14-.66-3.19-.8-6.47,1.18-9.36a2.54,2.54,0,0,1,1.85-1c4.14.29,8.26.76,12.4,1.1,1.19.09,1.47.64,1.34,1.69-.34,2.83-.68,5.65-1,8.48A9.62,9.62,0,0,1,59.32,119,8.32,8.32,0,0,1,57.2,120.15Z"/><path class="cls-3" d="M107.22,91.39c.82,10.16,1.69,20.84,2.57,31.71l-5.94,1c2.72-4.56,1.25-8.46-.88-12.15-1.57-2.73-3.52-5.25-5.3-7.87-1.39-2-2.76-4.08-4.22-6.24C98.35,95.54,103,93.38,107.22,91.39Z"/><path class="cls-3" d="M30.9,81.42c-6.43-.53-12.38-1.12-17.83-3.77A25.84,25.84,0,0,1,2.68,68a5,5,0,0,1-.53-1.18c-.53-1.6-.16-2.2,1.46-2A20.59,20.59,0,0,1,8.48,66c8.1,3.28,15,8.46,21.44,14.22C30.18,80.5,30.38,80.8,30.9,81.42Z"/><path class="cls-2" d="M107.7,180.33c-9,3.3-18.41,3.59-27.83,3.26-4.11-.15-8.2-.91-12.29-1.47-1.59-.22-2-1.29-1.47-3.58,4.64,2.71,9.79,3.1,14.9,2.8,5.88-.35,11.73-1.21,17.58-2a20.9,20.9,0,0,0,5.88-1.48c2.51-1.13,4.26-3.38,7.76-2.74,2.17.4,4.73-1.37,7.17-2.19.8,1.6.4,2.91-2.12,4.48a49.88,49.88,0,0,1-5.84,2.69l.09-.64-2.8-1.88c-.35.92-.7,1.84-1.06,2.75Z"/><path class="cls-3" d="M72.84,101.9c.44,7.8,1.35,15.24,8.39,20.41-2.94,0-5.59.21-8.19-.06-3.84-.39-3.58-.58-4.31-4.61-.9-5-2.26-9.91-3.42-14.87Z"/><path class="cls-3" d="M32.13,83.52c-2.45,5-9.61,7.31-14.33,6.71a4.62,4.62,0,0,1-3.07-2.35,13.85,13.85,0,0,1-1-5.41c0-1.1.73-2,2.31-1.56,2.64.68,5.33,1.19,8,1.62S29.37,83.19,32.13,83.52Z"/><path class="cls-3" d="M129.63,27c-1.06-.84-2.15-1.63-3.17-2.51-2.75-2.37-5.46-4.78-8.19-7.16,5.38-2.87,13.15-.35,15.59,5-1.12.14-2.24.22-3.33.43a7.43,7.43,0,0,0-1.61.72l-.07.12.05-.13,5.67-.52L137,26.72Z"/><path class="cls-2" d="M45.1,173.64c6.37,2.82,13,3.09,19.71,3.3.81,2.51.51,3.06-2.16,3-4.37-.17-8.74-.46-13.11-.72a6.18,6.18,0,0,1-1.43-.38C44.75,177.72,44.63,177.52,45.1,173.64Z"/><path class="cls-2" d="M151.31,58.22,154,56l.79,0-2.4,2.79c5.18,2.4,10.6,4.49,15.13,8.14l-.28.51L151.66,59.6C151.54,59.14,151.42,58.68,151.31,58.22Z"/><path class="cls-3" d="M135.27,27.21l1.64.1c.14,2.56-.51,3.36-3.56,4.38L130,27.59Z"/><path class="cls-2" d="M140.84,42.12a26.48,26.48,0,0,1,2.3,2.05c1.45,1.66,2.87,3.36,4.18,5.13a3,3,0,0,1,.18,2.14c-1.75-5.15-6.92-7-10-10.77Z"/><path class="cls-2" d="M115.23,121.47l-3.33,1.38-.65-2.82,4,1Z"/><path class="cls-2" d="M135.27,27.21l-5.29.38-.35-.61,7.32-.26Z"/><path class="cls-4" d="M128.92,23.5a7.43,7.43,0,0,1,1.61-.72c1.09-.21,2.21-.29,3.33-.43l.71.62-5.67.52Z"/><path class="cls-3" d="M109.83,89.38c.09.78.19,1.56.22,2.34,0,.07-.51.16-.78.24l-.36-2.49Z"/><path class="cls-1" d="M35.66,52.93c.11-6.72,3.15-11.55,8.86-14.83a29,29,0,0,1,19.75-3.59A14.4,14.4,0,0,1,74,41.08c3.32,4.94,5.4,10.09,4.17,16.29-1,5.1-3.86,8.61-8.06,11.31-7.59,4.89-15.55,5.48-23.79,1.93-5-2.16-8-6.15-9.53-11.29A62,62,0,0,1,35.66,52.93ZM55.42,71.07a25.59,25.59,0,0,0,15.8-5.26c5.33-4.05,7.15-12.72,4.22-19C73.24,42.13,70.29,38,65,36.62,57.7,34.71,51,36.35,44.5,40.19a14,14,0,0,0-6.93,11.09C36.61,59.71,42.53,71.49,55.42,71.07Z"/><path class="cls-1" d="M33.77,37.92a18,18,0,0,1,1.34-2.15A23.37,23.37,0,0,1,50.23,27.7c3.88-.54,7.89-.13,11.85,0,.62,0,1.23.67,1.78,1.29C52.24,26.87,42,28.78,34.17,38.55Z"/><path class="cls-2" d="M146.68,40.88,160.3,25.41,161,26,147.36,41.49Z"/><path class="cls-1" d="M154.79,56,154,56a7.89,7.89,0,0,0-3.28-7.07c-1.23-.92-2.37-2-3.55-3l.53-.89,3.94,2.41.74,1.06,1.16,1.13.66,1.07c.27.68.53,1.36.79,2,0,.35,0,.69.08,1C155,54.54,154.88,55.29,154.79,56Z"/><path class="cls-2" d="M152.38,48.53l-.74-1.06c2.16-2.11,4.26-4.28,6.49-6.3,1.45-1.3,3.1-2.38,4.65-3.57l.38.38c-.42.43-.82.89-1.27,1.28-2.75,2.4-5.55,4.75-8.26,7.2A8.51,8.51,0,0,0,152.38,48.53Z"/><path class="cls-2" d="M154.2,50.73l-.66-1.07c1.11-.63,2.21-1.27,3.34-1.88,2.2-1.19,4.32-2.62,7.07-2.39Z"/><path class="cls-2" d="M155.07,53.79c0-.34,0-.68-.08-1l9.31-.56.06.71c-.89.13-1.78.32-2.67.4s-1.86,0-2.78.08C157.63,53.49,156.35,53.66,155.07,53.79Z"/><path class="cls-2" d="M147.7,45.06l-.53.89-1.47-.61.71-.88Z"/><path class="cls-2" d="M145.66,44.49l-.65-.8.17-.24,1,.5Z"/><path class="cls-1" d="M128.52,63.45l.1-.1-.12.07Z"/><path class="cls-1" d="M145.66,44.49l.53-.54Z"/><path class="cls-2" d="M80.13,90.92c2.12,7.16,4.09,13.8,6.19,20.87C84.23,110.15,79.29,93.58,80.13,90.92Z"/><path class="cls-2" d="M83.39,88.32c3.62,5.85,7.52,11.54,10.8,17.59l-.77.46L82.71,88.67Z"/><path class="cls-2" d="M78.54,104.44A47,47,0,0,1,77.74,91C78.65,95.43,79.43,99.9,78.54,104.44Z"/><path class="cls-2" d="M83.74,93.31q2.74,6.54,5.51,13.09l-.69.28A86.77,86.77,0,0,1,83.25,93.8C83.41,93.64,83.57,93.47,83.74,93.31Z"/><path class="cls-4" d="M83.74,93.31c-.17.16-.33.33-.49.49l-2.06-5.22.66-.25Z"/><path class="cls-4" d="M128.9,23.49l-.05.13.07-.12Z"/><path class="cls-5" d="M55.42,71.07c-12.89.42-18.81-11.36-17.85-19.79A14,14,0,0,1,44.5,40.19C51,36.35,57.7,34.71,65,36.62c5.28,1.39,8.23,5.51,10.43,10.21,2.93,6.26,1.11,14.93-4.22,19A25.59,25.59,0,0,1,55.42,71.07ZM47.89,50c2.67-.53,5-1.71,6.71.53A4.25,4.25,0,0,1,55,55.48c-1.79,2.65-4.58,2-7.43,1.63a12,12,0,0,0,2.22,3.73c2.54,2.54,5.86,3,9.2,2.59,3.66-.44,6.91-2.07,8.55-5.52s1.18-7.1-1.25-10.33c-4-5.33-13.35-5.34-17.27.06A18.61,18.61,0,0,0,47.89,50Z"/><path class="cls-1" d="M47.89,50a18.61,18.61,0,0,1,1.17-2.37c3.92-5.4,13.27-5.39,17.27-.06,2.43,3.23,3,6.78,1.25,10.33S62.69,63,59,63.43c-3.34.4-6.66,0-9.2-2.59a12,12,0,0,1-2.22-3.73c2.85.39,5.64,1,7.43-1.63a4.25,4.25,0,0,0-.44-4.94C52.9,48.3,50.56,49.48,47.89,50Z"/></g></g></svg>