<?xml version="1.0" encoding="utf-8"?>
<!-- Generator: Adobe Illustrator 26.0.0, SVG Export Plug-In . SVG Version: 6.00 Build 0)  -->
<svg version="1.1" xmlns="http://www.w3.org/2000/svg" xmlns:xlink="http://www.w3.org/1999/xlink" x="0px" y="0px"
	 viewBox="0 0 1920 1080" style="enable-background:new 0 0 1920 1080;" xml:space="preserve">
<style type="text/css">
	.st0{fill:#F5EDE2;}
	.st1{fill:#E6DBE1;}
</style>
<g id="Background">
	<rect x="0" y="0" class="st0" width="1920" height="1080"/>
</g>
<g id="Layer_1">
	<g>
		<g>
			<path class="st1" d="M938.4,1080c-32.8,0-65.6,0-98.4,0c1.3-9.6,3.5-19.2,3.7-28.9c0.4-18.3,1.2-36.7-0.9-54.8
				c-3-26-14.4-49.4-28.2-71.6c-9.7-15.4-23.1-26-40.1-32.4c-16.1-6.1-32.6-8.7-49.7-7.9c-13,0.6-25.1,4.2-36.2,10.7
				c-16.9,9.9-27.4,25.5-36.1,42.6c-5.7,11.3-10.4,23.5-20.6,31.8c-6.1,4.9-12.5,10.2-19.6,13.3c-12.7,5.6-25.8,10.9-39.2,14
				c-13.6,3.1-27.9,3-41.5,7.4c-15.7,5.1-26.2,18.2-26.3,34.6c-0.1,11.4,5.1,20.6,11.6,29.4c2.9,3.9,5.9,7.9,8.8,11.8
				c-43.6,0-87.2,0-130.8,0c-0.1-1.4,0.2-3.2-0.5-4.1c-7-8.9-13.5-18.4-21.4-26.4c-11.3-11.3-25-19.7-39.3-26.8
				c-18.7-9.2-38.6-14.9-59-18.2c-17.4-2.8-35.2-3.9-52.6-6.5c-15.9-2.4-31.9-5-47.3-9.4c-14.8-4.3-29.6-9.6-43.1-16.9
				c-25.7-14-43.9-35.7-57.2-61.6c-16-31.1-20.7-64.4-16.3-98.6c4.2-32.3,16.2-62.3,32.3-90.5c17.6-30.8,39.6-58.3,64.1-83.7
				c9.9-10.4,20.6-20.1,31-29.9c9.3-8.7,19.1-17,28.2-25.8c18.2-17.6,37.6-34.2,53.8-53.5c20.4-24.1,35.7-51.8,41.3-83.6
				c2.1-12.1,3.6-24.4,4.2-36.7c0.4-7.2-1.4-14.6-2.1-21.9c-2.3-20.9-9.6-40.2-20.8-57.7c-13-20.3-30.1-36.9-50.1-50.7
				c-22.7-15.7-47-28.3-72.5-38.4c-25.7-10.2-51.8-19.5-77.9-28.5c-19.3-6.6-38.9-12.3-58.6-17.8c-10.1-2.8-20.6-4.4-30.9-6.6
				C0,124.1,0,62.2,0,0c52.4,0,104.8,0,157.2,0c1.6,2.2,2.8,5,4.9,6.5c13.8,10,29.2,16.8,45.2,22.2c12.8,4.3,25.9,7.7,38.7,12.2
				c17.2,6.1,32.1,16.5,47.7,25.8c21.4,12.8,34.6,32.3,46.9,52.8c5.1,8.5,9,17.9,15.3,25.3c12.1,14.2,28.2,21,47,20.8
				c10-0.1,18.3,4.5,23.4,12.4c6.3,9.6,11.8,20,15.5,30.8c6,17.4,9.8,35.6,15.4,53.2c3.2,10.3,6.8,20.8,12.2,30.1
				c9.8,16.9,25.5,26.5,43.6,33.6c20.7,8.1,39.4,3.9,56.5-7.9c7.1-4.9,12.2-12.9,17.7-19.9c20.2-26.1,23.2-56.8,20.7-87.9
				c-1.7-21.7-6.1-43.3-15-63.6c-6.2-14.2-11.8-28.7-18.7-42.6c-8.1-16.3-16.6-32.5-26.1-48.1c-8.9-14.6-19.2-28.2-28.9-42.3
				c-3.1-4.5-6.2-9-9.3-13.4c42,0,84,0,126,0c1.5,1.4,2.7,3.2,4.5,4c22.7,9.7,44.1,22,64.5,35.8c18.3,12.4,35.1,26.7,50.5,42.8
				c12.8,13.5,24.8,27.6,33.6,44c7.8,14.5,15.7,29.4,20.4,45c7.9,26.8,8,54.3,2.5,82c-4.9,24.5-14,47.4-25.6,69.1
				c-19.2,36-45.6,66.4-76.7,92.5c-27,22.6-56.9,40.9-89.8,53.6c-19.4,7.5-39.2,14.3-59.1,20.3c-14.8,4.4-30.2,6.5-45.1,10.6
				c-28.4,7.7-56.9,15.3-84,27.2c-24.8,10.9-48,24.5-69.4,40.8c-17.2,13.1-32.8,28.2-46.8,45c-23,27.7-40.3,58.1-48.5,93.4
				c-5.6,24-6.4,48-1.8,72.2c4,21.2,11.3,41.1,23.1,59.6c14.6,22.9,34,40.1,58.6,50.8c23.8,10.3,49.1,13.6,74.9,9.9
				c23.2-3.3,45.8-9.6,66.9-19.5c23.2-10.8,45.7-23.3,68-35.8c22.9-12.8,44.9-27.1,67.9-39.7c27.6-15.1,55.6-29.8,86.5-37.2
				c14.8-3.6,30.2-6,45.3-6.4c17-0.4,34.2,1.3,51.1,3.5c15,1.9,29.7,5.9,43.1,13.4c18.4,10.3,32.8,25.2,44.5,42.4
				c8.4,12.4,15.9,25.7,22.4,39.2c5.3,10.8,10,22.3,12.5,34.1c4.3,20.3,7.9,41,9.8,61.7c1.8,19.7,1.6,39.7,1.3,59.6
				C940.4,1035.8,939.2,1057.9,938.4,1080z"/>
			<path class="st0" d="M1920,688.8c0,33.2,0,66.4,0,99.6c-1.6,1.3-3.5,2.4-4.9,3.9c-6.4,6.8-12.2,14.4-19.2,20.4
				c-20.4,17.5-44.3,29.4-68.3,40.9c-17,8.2-34.6,15.4-51.8,23c-20.5,9.1-40.4,19.4-58.9,32.3c-13.1,9.1-24.2,20.2-34,32.5
				c-13.9,17.6-23.5,37.6-32.1,58.3c-10.6,25.9-17,52.8-22.4,80.2c-60.8,0-121.6,0-182.4,0c1.6-3,2.9-6.1,4.7-8.8
				c5.7-8.4,11.7-16.6,17.6-24.9c7.2-10,14-20.3,21.7-29.9c8.1-10.1,17.6-19.1,25.3-29.4c15.2-20.3,25.5-42.6,24.3-68.9
				c-0.3-7.5-2.4-14.1-9.5-17.4c-12.6-5.8-25.4-11.3-38.4-16.2c-9.6-3.6-18.7-7.8-26.3-14.9c-11.3-10.7-17.8-24-20.5-39
				c-3.3-18.6-5.6-37.3-8.6-55.9c-1.3-8.1-5.1-15.3-13.7-17c-6.9-1.4-14.2-1.5-21.2-0.9c-14.2,1.1-25.9,8.2-35.6,17.9
				c-10.2,10.2-17.8,23.8-8.4,39.9c6.8,11.7,15.5,22.5,24,33.2c14.7,18.5,26.5,37.8,22.6,62.9c-1.9,12.3-5.8,23.8-11.9,34.7
				c-10.2,18.2-26,30.9-42.2,43.4c-14.9,11.6-30.1,22.9-44.2,35.5c-9.1,8.1-14.5,19.2-13.3,32.1c0.7,7.9,2.3,15.7,3.5,23.5
				c-42.4,0-84.8,0-127.2,0c-3.5-21.1-0.5-41.9,4.5-62.1c4.7-18.6,12.1-36.7,22.5-53.1c7-11.1,14.7-21.7,21.8-32.8
				c10.7-16.7,22.3-33.1,31.4-50.7c7.3-14.2,8.4-30.1-2.2-44.2c-11.7-15.6-24.6-30.4-35.2-46.6c-9.4-14.4-17.7-29.8-24.2-45.7
				c-5.3-12.9-7.9-27.1-10.3-40.9c-3.4-19.7-1.4-39.4,8.3-57c18.6-33.7,49.4-48.6,86.4-51.6c22.6-1.8,44.9,0.7,66.5,8.8
				c20.5,7.7,41,15.2,61.7,22.2c13.5,4.6,27.2,9,41.2,11.8c16.1,3.3,32.5,5.2,48.9,7.2c9.1,1.1,18.3,1.6,27.4,1.2
				c12.1-0.5,24.2-1.9,36.2-3.4c22.5-2.8,43.5-10.5,61.7-23.9c20.6-15.3,36.1-35.1,44.8-59.7c10.8-30.5,8.5-59.9-7.1-88.1
				c-13.4-24.2-33.3-42.6-54.8-59c-24-18.4-49.3-35.1-73.7-53c-14.1-10.4-28.1-21-41.1-32.6c-15.6-13.8-28.3-30.1-36.6-49.6
				c-5.1-11.9-7.5-24.5-7.6-37.2c-0.1-16.3,4.4-32,11.7-46.5c13-25.9,31.8-47.2,54-65.6c23.4-19.3,50-33.1,77.7-44.9
				c19.8-8.4,39.9-16,59.1-25.6c24.8-12.4,42.8-32,53.9-57.5c74.7,0,149.3,0,224.4,0c0,26.8,0,53.6,0,80.4c-8,3.5-15.9,7.3-24,10.6
				c-26.1,10.4-52.5,20.2-78.4,31.1c-32.4,13.6-62.3,31.3-86.2,57.6c-12,13.2-22,27.9-25.5,45.9c-2.6,13.3,0,25.3,10.6,34.8
				c18,16.1,39.7,17.7,61.8,14.7c13.8-1.9,27.3-6.7,40.7-11c14.9-4.8,29.6-10.3,44.4-15.6c18.3-6.5,37.3-9.9,56.6-10.9
				c0,86.8,0,173.6,0,260.4c-1.8,1.2-3.9,2-5.3,3.6c-12.1,14.4-25,28.3-35.9,43.7c-8.7,12.3-13.9,26.7-14.1,42.4
				c-0.3,19.9,8.3,36.5,19,52.3c10.1,14.7,20.5,29.3,30.9,43.8C1916,685.7,1918.2,687.1,1920,688.8z"/>
			<path class="st0" d="M938.4,1080c0.8-22.1,2-44.2,2.3-66.3c0.2-19.9,0.5-39.8-1.3-59.6c-1.9-20.7-5.4-41.4-9.8-61.7
				c-2.5-11.7-7.2-23.2-12.5-34.1c-6.6-13.5-14-26.7-22.4-39.2c-11.7-17.2-26-32.1-44.5-42.4c-13.4-7.5-28.1-11.5-43.1-13.4
				c-16.9-2.1-34.1-3.9-51.1-3.5c-15.2,0.4-30.5,2.8-45.3,6.4c-30.8,7.5-58.9,22.1-86.5,37.2c-23,12.6-45,26.9-67.9,39.7
				c-22.4,12.5-44.8,25-68,35.8c-21.1,9.9-43.7,16.2-66.9,19.5c-25.8,3.7-51.1,0.4-74.9-9.9c-24.6-10.6-44-27.9-58.6-50.8
				c-11.7-18.4-19-38.3-23.1-59.6c-4.6-24.2-3.8-48.2,1.8-72.2c8.2-35.3,25.5-65.8,48.5-93.4c14-16.8,29.5-31.9,46.8-45
				c21.4-16.3,44.6-29.9,69.4-40.8c27.1-12,55.6-19.5,84-27.2c14.9-4.1,30.4-6.2,45.1-10.6c20-6,39.7-12.8,59.1-20.3
				c33-12.7,62.8-31,89.8-53.6c31.1-26.1,57.5-56.5,76.7-92.5c11.6-21.8,20.8-44.6,25.6-69.1c5.5-27.7,5.4-55.2-2.5-82
				c-4.6-15.7-12.6-30.5-20.4-45c-8.8-16.4-20.8-30.5-33.6-44c-15.3-16.1-32.2-30.4-50.5-42.8C684.6,25.9,663.2,13.7,640.5,4
				c-1.7-0.7-3-2.6-4.5-4c86.4,0,172.8,0,259.2,0c6.1,10.8,13.3,21.1,18.2,32.5c5.1,11.8,8.6,24.3,11.7,36.8
				c2.9,11.7,3.4,24,6.4,35.7c5.3,20.6,17.5,36.4,38.4,42.2c23.5,6.5,45.9,2.1,65.5-12.8c14.5-11,25.2-24.4,23-44.3
				c-0.4-3.4,0.2-6.8-0.1-10.2c-1.5-15.1-7.6-27.9-20-37.1c-11-8.2-22.7-15.5-33.3-24.2c-6.3-5.2-10.9-12.4-16.3-18.6
				c54.8,0,109.6,0,164.4,0c-1.3,11.7,2.7,21.5,10.3,30.2c7.1,8.1,13.8,16.5,21,24.5c24.6,27.6,29.5,60.1,22.8,95
				c-3.7,19.4-12,37.2-22.5,54c-11.2,17.9-25.4,33.2-42.2,45.2c-20,14.4-42,25.9-63.1,38.7c-17.5,10.6-35.4,20.7-52.3,32.3
				c-17,11.7-32.3,25.6-46.2,41.1c-12.9,14.3-23.9,29.6-31.1,47.7c-10.5,26.2-7.5,46.1,13.3,65.2c16.1,14.8,34,27.6,51.1,41.1
				c19.6,15.5,35.6,33.9,45.1,57.1c7.1,17.4,8.6,35.6,6.4,54.5c-2.4,20.8-12,37.7-25.3,52.8c-11.2,12.7-23.5,24.4-35.2,36.7
				c-21.6,22.7-26.9,54.8-12,83c9.5,18,21.3,34.8,32.3,52c9.9,15.6,21.2,30.4,29.8,46.6c12.5,23.6,18.2,49.7,19.4,76.2
				c1.6,35.7,1.1,71.4-9.3,106.1C1023.2,1080,980.8,1080,938.4,1080z M705.2,653.8c20.6-0.2,40-5,58.6-13
				c12.9-5.5,24.5-13.1,35-22.4c17.6-15.6,31.5-33.5,38-56.4c2.9-10.1,5.4-20.4,7.9-30.6c4.6-18.9-2.8-34.6-12.9-49.8
				c-12.3-18.5-38.4-20.7-53.5-3.4c-12,13.8-22.8,28.6-33.4,43.5C734,537,722.8,552,707.2,562.8c-8.2,5.7-17.2,10.5-26,15.3
				c-9.6,5.2-19.2,10.8-30.8,9.9c-1.7-0.1-3.5,0.7-5.2,1.1c-22.7,5.2-45.3,10.6-68,15.5c-19.9,4.3-39.5,9.1-56.4,21.1
				c-14.9,10.6-28.7,22-35.8,39.8c-4.2,10.4-3.5,19.9,3.8,25c5.9,4.2,12.9,5,20,3.6c19.1-3.6,34.7-14.5,51.3-23.6
				c9.9-5.4,19.6-11.6,30.1-15.2c10.6-3.6,22-5.3,33.2-6.4c11.5-1.1,23.1-1.3,34.6-0.6C673.7,649.6,689.4,652,705.2,653.8z"/>
			<path class="st1" d="M1065.6,1080c10.4-34.7,10.9-70.4,9.3-106.1c-1.2-26.5-6.9-52.6-19.4-76.2c-8.6-16.2-19.9-31-29.8-46.6
				c-11-17.2-22.7-34-32.3-52c-15-28.2-9.7-60.3,12-83c11.7-12.3,24-24,35.2-36.7c13.3-15.1,22.9-32,25.3-52.8
				c2.2-18.9,0.7-37.2-6.4-54.5c-9.5-23.2-25.5-41.6-45.1-57.1c-17.2-13.6-35-26.4-51.1-41.1c-20.8-19.1-23.8-39-13.3-65.2
				c7.2-18,18.3-33.4,31.1-47.7c13.9-15.4,29.2-29.4,46.2-41.1c16.8-11.6,34.8-21.6,52.3-32.3c21.1-12.8,43.1-24.3,63.1-38.7
				c16.7-12,31-27.3,42.2-45.2c10.5-16.9,18.8-34.6,22.5-54c6.7-34.9,1.7-67.4-22.8-95c-7.1-8-13.9-16.4-21-24.5
				c-7.6-8.7-11.6-18.5-10.3-30.2c180.8,0,361.6,0,542.4,0c-11.2,25.5-29.2,45.1-53.9,57.5c-19.2,9.6-39.4,17.2-59.1,25.6
				c-27.7,11.8-54.4,25.6-77.7,44.9c-22.2,18.3-41,39.7-54,65.6c-7.3,14.5-11.8,30.2-11.7,46.5c0.1,12.7,2.5,25.2,7.6,37.2
				c8.3,19.5,21,35.7,36.6,49.6c13.1,11.6,27,22.3,41.1,32.6c24.4,17.9,49.7,34.6,73.7,53c21.5,16.5,41.5,34.9,54.8,59
				c15.7,28.2,17.9,57.6,7.1,88.1c-8.7,24.6-24.2,44.4-44.8,59.7c-18.1,13.4-39.2,21.1-61.7,23.9c-12,1.5-24.1,2.9-36.2,3.4
				c-9.1,0.4-18.4-0.2-27.4-1.2c-16.4-1.9-32.8-3.8-48.9-7.2c-13.9-2.9-27.6-7.3-41.2-11.8c-20.7-7-41.3-14.5-61.7-22.2
				c-21.5-8.1-43.9-10.6-66.5-8.8c-24.5,2-46.3,9.1-63.6,23.5c-14.5,12.1-21.5,25.4-22.8,28c-6.7,13.2-8.4,25-9.4,32.5
				c-1.4,10.4-1,18.4-0.6,25.3c0.5,8.2,1.4,24,7.1,40.9c7.2,21.6,18.8,36,26.8,45.6c17,20.5,27.3,23.4,39.5,45.1
				c4.6,8.2,7.3,15.2,8.2,23.3c0.3,2.8,1.5,15-4.7,30c-7.7,18.6-17.9,20.3-40,46.2c-7.8,9.1-14.4,16.8-20.9,28.3
				c-11.1,19.5-14.6,36.7-17.9,53.8c-2.9,15.1-5.7,36.3-4.5,62.1C1134.4,1080,1100,1080,1065.6,1080z M1337,490.5
				c21.7,0.8,35.4-4.9,48.2-12c18.3-10.2,31.7-24.6,36.3-46.4c4.3-20-1.6-37.1-12.4-53c-8.9-13-21.6-22.5-34.7-30.7
				c-14-8.7-18.3-21.7-19.7-36.7c-1.6-16.8,6.6-30.8,12.7-45.4c4.5-10.8,9.7-21.4,13.3-32.5c4.6-14.1,2.6-28.9,1-43.2
				c-1-8.7-5.1-17.6-14.3-20.8c-13.4-4.7-27.2-5.9-40,2.6c-16.7,11.1-34.4,21.1-50,33.7c-21.8,17.6-42.6,36.7-62.9,56.1
				c-19.9,19-38.9,38.9-57.8,58.8c-14.9,15.8-24.5,34.6-29.5,55.8c-4.2,17.5,0.3,32.6,13.6,44.4c13.1,11.7,29.3,12.1,45.7,10.2
				c17.6-2.1,34.8-6.6,52.7-5.5c14.9,0.9,26.7,6.8,35.5,19c7,9.8,13.3,20,22.8,28.1C1311,484.7,1326.4,489.4,1337,490.5z"/>
			<path class="st0" d="M0,186c10.3,2.2,20.8,3.8,30.9,6.6c19.6,5.5,39.3,11.2,58.6,17.8c26.2,9,52.2,18.3,77.9,28.5
				c25.5,10.1,49.8,22.7,72.5,38.4c20,13.8,37,30.4,50.1,50.7c11.2,17.5,18.6,36.8,20.8,57.7c0.8,7.3,2.5,14.7,2.1,21.9
				c-0.7,12.3-2.1,24.6-4.2,36.7c-5.6,31.8-20.9,59.5-41.3,83.6c-16.3,19.3-35.6,35.9-53.8,53.5c-9.2,8.9-18.9,17.1-28.2,25.8
				c-10.5,9.8-21.1,19.6-31,29.9c-24.5,25.5-46.5,53-64.1,83.7c-16.1,28.2-28.1,58.2-32.3,90.5c-4.4,34.3,0.3,67.5,16.3,98.6
				c13.3,25.9,31.5,47.6,57.2,61.6c13.5,7.3,28.3,12.7,43.1,16.9c15.4,4.4,31.4,7,47.3,9.4c17.5,2.7,35.2,3.7,52.6,6.5
				c20.4,3.3,40.3,9,59,18.2c14.4,7.1,28,15.4,39.3,26.8c8,8,14.5,17.4,21.4,26.4c0.7,0.9,0.4,2.7,0.5,4.1c-131.5,0-263,0-394.8,0
				c0-172.4,0-344.8,0-517.2c2-1.5,4.1-2.9,5.9-4.7c12.4-12.9,23.9-26.8,37.3-38.6c20-17.6,38.8-35.7,50.8-60.2
				c11.7-23.8,17.4-47.8,7.9-73.6c-7.8-21-20.4-38.3-42.2-45.8c-19.5-6.8-39.7-11.5-59.6-17.1C0,277.2,0,231.6,0,186z"/>
			<path class="st0" d="M510,0c3.1,4.5,6.2,9,9.3,13.4c9.7,14.1,20.1,27.7,28.9,42.3c9.5,15.6,18,31.8,26.1,48.1
				c6.9,13.9,12.4,28.4,18.7,42.6c8.9,20.3,13.3,41.9,15,63.6c2.5,31.1-0.6,61.8-20.7,87.9c-5.4,7-10.6,15-17.7,19.9
				c-17.1,11.8-35.8,16-56.5,7.9c-18-7.1-33.8-16.7-43.6-33.6c-5.4-9.3-9-19.8-12.2-30.1c-5.5-17.6-9.4-35.8-15.4-53.2
				c0,0-5.2-17.1-15.5-30.8c-1.9-2.5-4.7-5.9-9.3-8.5c-5.1-2.9-9.4-3.3-14.1-3.9c-10.7-1.4-21.3-2.3-29.7-6.7
				c-6.4-3.4-12.3-8.1-17.4-14.1c-6.3-7.4-10.2-16.9-15.3-25.3c-12.3-20.5-25.5-40-46.9-52.8C278.1,57.4,263.2,47,246,40.9
				c-12.7-4.5-25.8-7.9-38.7-12.2c-16.1-5.3-31.5-12.2-45.2-22.2C160,5,158.8,2.2,157.2,0C274.8,0,392.4,0,510,0z"/>
			<path class="st1" d="M1628.4,1080c5.3-27.3,11.7-54.3,22.4-80.2c8.5-20.7,18.1-40.7,32.1-58.3c9.8-12.4,20.9-23.4,34-32.5
				c18.5-12.9,38.4-23.2,58.9-32.3c17.3-7.7,34.8-14.9,51.8-23c24-11.5,48-23.4,68.3-40.9c7-6.1,12.8-13.6,19.2-20.4
				c1.4-1.5,3.3-2.6,4.9-3.9c0,64,0,128,0,192c-2.2,1.2-4.8,2.1-6.6,3.8c-8.4,8.1-17,16.2-24.9,24.8c-19.3,20.8-32.8,45.2-44.1,71
				C1772.4,1080,1700.4,1080,1628.4,1080z"/>
			<path class="st0" d="M525.6,1080c-6.2-3.6-10-7.8-12.1-10.5c-9.3-12.2-8.7-26-8.4-30.7c0.2-3.4,0.6-8.8,3.3-15
				c5.7-12.9,17.2-19.1,22.7-21.9c11.6-6,14.8-3.4,40.4-8.6c16.2-3.3,26.8-5.6,39.3-12.1c5.4-2.9,13.6-7.1,21.6-15.2
				c13.9-14.1,9.7-21.8,23.4-41.1c2.1-2.9,13.7-18.9,32.5-29.7c9.9-5.7,18.4-7.9,20.4-8.4c5.1-1.3,10.4-2.1,15.8-2.3
				c17.1-0.7,33.6,1.9,49.7,7.9c17,6.4,30.5,17,40.1,32.4c13.8,22.1,25.2,45.5,28.2,71.6c2.1,18.1,1.3,36.5,0.9,54.8
				c-0.2,9.7-2.4,19.3-3.7,28.9C735.2,1080,630.4,1080,525.6,1080z"/>
			<path class="st1" d="M1296,1080c-1.2-7.8-2.8-15.6-3.5-23.5c-1.2-12.9,4.2-23.9,13.3-32.1c14.1-12.6,29.2-24,44.2-35.5
				c16.1-12.5,31.9-25.1,42.2-43.4c6.1-10.9,10-22.4,11.9-34.7c3.9-25.1-8-44.4-22.6-62.9c-8.5-10.7-17.1-21.5-24-33.2
				c-2.7-4.6-4.1-9.1-4.2-14.6c-0.4-12.7,7.5-22,11-26.1c13-15.3,30.8-17.8,36.4-18.6c13-1.8,20.5,1.6,22.1,2.4
				c4.6,2.2,7.1,4.9,7.8,5.6c4,4.3,5.3,9,6,11.4c3.9,15,5,35.7,8.6,55.9c2.7,15,9.2,28.4,20.5,39c2.1,2,10.1,9.1,26.3,14.9
				c15.4,5.5,29.5,6.7,37.6,13.5c3.1,2.6,5.3,5.8,5.3,5.8c0.6,0.9,3.2,4.6,4.7,10.4c2.5,9.4,0.7,18.5,0,21.5
				c-5.9,26.8-24,51.3-24,51.3c-9.9,13.3-10.2,10.5-25.3,29.4c-7.7,9.6-14.5,19.9-21.7,29.9c-5.9,8.3-11.8,16.5-17.6,24.9
				c-1.9,2.7-3.2,5.9-4.7,8.8C1396,1080,1346,1080,1296,1080z"/>
			<path class="st1" d="M1920,237.6c-19.4,1-38.3,4.4-56.6,10.9c-14.8,5.3-29.4,10.8-44.4,15.6c-13.4,4.3-26.9,9.1-40.7,11
				c-22.1,3-43.9,1.4-61.8-14.7c-10.6-9.5-13.2-21.5-10.6-34.8c3.6-18,13.5-32.6,25.5-45.9c23.9-26.3,53.8-44,86.2-57.6
				c25.9-10.9,52.3-20.7,78.4-31.1c8.1-3.2,16-7,24-10.6C1920,132.8,1920,185.2,1920,237.6z"/>
			<path class="st1" d="M0,322.8c19.9,5.6,40.1,10.4,59.6,17.1c21.8,7.5,34.5,24.8,42.2,45.8c9.5,25.8,3.8,49.8-7.9,73.6
				c-12,24.5-30.8,42.5-50.8,60.2c-13.4,11.8-24.9,25.7-37.3,38.6c-1.7,1.8-3.9,3.1-5.9,4.7C0,482.8,0,402.8,0,322.8z"/>
			<path class="st1" d="M988.8,0c5.4,6.3,10,13.4,16.3,18.6c10.5,8.7,22.3,16,33.3,24.2c12.4,9.2,18.4,22,20,37.1
				c0.3,3.4-0.3,6.8,0.1,10.2c2.2,19.9-8.5,33.3-23,44.3c-19.6,14.9-42.1,19.3-65.5,12.8c-21-5.8-33.1-21.6-38.4-42.2
				c-3-11.7-3.5-24-6.4-35.7c-3.1-12.5-6.6-25-11.7-36.8c-4.9-11.3-12-21.7-18.2-32.5C926.4,0,957.6,0,988.8,0z"/>
			<path class="st1" d="M1920,688.8c-1.8-1.7-4-3.1-5.4-5.1c-10.4-14.5-20.8-29.1-30.9-43.8c-10.8-15.8-19.3-32.3-19-52.3
				c0.2-15.7,5.4-30.1,14.1-42.4c10.8-15.4,23.7-29.2,35.9-43.7c1.3-1.6,3.5-2.4,5.3-3.6C1920,561.6,1920,625.2,1920,688.8z"/>
			<path class="st0" d="M1844.4,1080c11.3-25.8,24.8-50.2,44.1-71c8-8.6,16.5-16.7,24.9-24.8c1.8-1.7,4.4-2.6,6.6-3.8
				c0,9.2,0,18.4,0,27.6c-1.4,0.5-3.3,0.7-4.2,1.6c-14.1,14.6-44,62.8-47.4,70.4C1860.4,1080,1852.4,1080,1844.4,1080z"/>
			<path class="st1" d="M705.2,653.8c-15.8-1.8-31.5-4.2-47.3-5.3c-11.5-0.8-23.2-0.6-34.6,0.6c-11.2,1.1-22.6,2.8-33.2,6.4
				c-10.5,3.6-20.2,9.8-30.1,15.2c-16.6,9-32.2,20-51.3,23.6c-7.2,1.4-14.1,0.6-20-3.6c-7.2-5.1-7.9-14.6-3.8-25
				c6.7-16.6,18.2-27.5,35.8-39.8c10.2-7,26.9-17.2,49.6-25c11.3-3.9,29.1-9.9,52.6-11c13.1-0.6,19.8,0.7,34.2-2.2
				c12.5-2.5,22.4-6.5,28.7-9.5c5-2.3,15.4-7.7,26.5-16.8c12-9.9,19-19.9,32.6-39.7c13.5-19.6,18.7-30.1,33.4-43.5
				c7.5-6.9,11.9-9.3,16.5-10.6c14-4,29.3,2.2,38.7,10.5c22.8,20.4,14.8,58.2,13.2,65.6c-2.5,11.8-6.7,19.9-11.5,28.9
				c-12.2,23.3-27.7,38.3-36.5,45.7c-15.5,13.2-29.8,20.2-35,22.4C745.2,648.7,725.8,653.6,705.2,653.8z"/>
			<path class="st0" d="M1337,490.5c-10.6-1.2-26-5.9-39.4-17.4c-9.5-8.2-15.8-18.3-22.8-28.1c-8.8-12.2-20.6-18.2-35.5-19
				c-17.9-1-35.2,3.5-52.7,5.5c-16.4,1.9-32.6,1.5-45.7-10.2c-13.2-11.8-17.7-26.9-13.6-44.4c5.1-21.2,14.6-40,29.5-55.8
				c17.9-18.9,30.6-33.2,57.8-58.8c4.2-4,22.7-20.5,59.7-53.6c1.6-1.4,7.5-6.7,15.7-13.3c18.8-15.1,28.2-22.6,40.2-26.3
				c7.5-2.3,23-7.1,37.3,0.8c11.2,6.2,15.7,17,17.3,21c7.3,17.4,2,34.2-0.9,43.4c-4.2,13.4-7.1,11.9-16.5,32.1
				c-8.3,18-14.2,29.8-12.7,45.4c1.4,15,5.7,28,19.7,36.7c13.1,8.2,25.9,17.7,34.7,30.7c10.8,15.9,16.6,33,12.4,53
				c-4.6,21.7-18,36.2-36.3,46.4C1372.5,485.7,1358.7,491.4,1337,490.5z"/>
		</g>
	</g>
	<path class="st0" d="M-248.4-688.3"/>
	<path class="st0" d="M2072.3,772.4"/>
</g>
</svg>
